Coordinates
version=1
nRows=20
nColumns=26
inDegrees=yes

Units are S.I. units (second, meters, Newtons, ...)
If the header above contains a line with 'inDegrees', this indicates whether rotational values are in degrees (yes) or radians (no).

endheader
time	pelvis_tilt	pelvis_list	pelvis_rotation	pelvis_tx	pelvis_ty	pelvis_tz	hip_flexion_r	hip_adduction_r	hip_rotation_r	knee_angle_r	knee_angle_r_beta	hip_flexion_l	hip_adduction_l	hip_rotation_l	knee_angle_l	knee_angle_l_beta	lumbar_extension	lumbar_bending	lumbar_rotation	ankle_angle_r	subtalar_angle_r	mtp_angle_r	ankle_angle_l	subtalar_angle_l	mtp_angle_l
      0.71000000	     -5.61342396	      1.16746421	     -6.45952574	     -0.03872833	      0.85856358	     -0.23240651	     -1.70616084	     -1.09318079	     -3.62312946	     19.24855281	      0.33595062	     25.84583468	     -3.44397743	    -15.22418092	      2.65514113	      0.04634095	     -4.79312623	     -3.18876517	      6.20028811	     17.31025678	     -7.55366680	      0.00000000	     -3.02875916	      1.28234063	      0.00000000
      0.72000000	     -5.56574739	      2.21882561	     -6.60519372	     -0.02777496	      0.85860930	     -0.23502727	     -1.28219329	     -2.76304260	     -4.11265616	     21.40320118	      0.37355633	     25.13470133	     -2.18103911	    -15.30381084	      2.23251729	      0.03896478	     -4.47803539	     -4.37185530	      5.97692771	     17.00543556	     -7.68565279	      0.00000000	     -5.95894610	     -0.16935284	      0.00000000
      0.73000000	     -5.37457512	      2.89913349	     -6.56490581	     -0.01668658	      0.85917255	     -0.23757712	     -1.30251592	     -3.91052928	     -4.24880951	     22.98798283	      0.40121599	     24.44856278	     -1.33136556	    -15.57733543	      2.48064047	      0.04329534	     -4.39965957	     -5.11902930	      5.59341901	     15.91082121	     -8.36078810	      0.00000000	     -6.82679193	      0.21143543	      0.00000000
      0.74000000	     -5.22735105	      3.64825749	     -6.41728513	     -0.00570505	      0.85987063	     -0.24015130	     -1.10501336	     -5.11514033	     -4.38633071	     24.85902888	      0.43387190	     23.76600766	     -0.33979131	    -15.83086196	      2.61078907	      0.04556687	     -4.28126806	     -6.04470261	      5.26305394	     14.56153411	     -9.11762947	      0.00000000	     -7.31416368	      0.42455850	      0.00000000
      0.75000000	     -5.08811292	      4.46363952	     -6.23569405	      0.00528544	      0.86074372	     -0.24304672	     -0.72805466	     -6.44444916	     -4.63728840	     26.96836557	      0.47068677	     23.04079929	      0.78558031	    -16.04932398	      2.70037885	      0.04713050	     -4.14319214	     -6.97689670	      4.86017336	     12.90031967	    -10.00427577	      0.00000000	     -7.29140148	      0.67480512	      0.00000000
      0.76000000	     -4.95998426	      5.32475958	     -5.98859838	      0.01617254	      0.86174406	     -0.24611162	     -0.17364908	     -7.84914842	     -4.96230473	     29.29612843	      0.51131390	     22.28865054	      2.01710603	    -16.25256556	      2.74912843	      0.04798134	     -4.02194726	     -7.95621218	      4.40777122	     10.87668867	    -11.03585289	      0.00000000	     -6.78344324	      1.03642951	      0.00000000
      0.77000000	     -4.98553025	      6.18194677	     -5.84681477	      0.02682807	      0.86262215	     -0.24898688	      0.81367790	     -9.22329806	     -5.03994992	     31.92073657	      0.55712195	     21.67854373	      3.18496593	    -16.63882753	      2.80476232	      0.04895234	     -3.71581558	     -8.92674152	      4.17589563	      8.30127598	    -12.42905690	      0.00000000	     -5.98816141	      1.61903215	      0.00000000
      0.78000000	     -4.80461705	      7.04083457	     -5.46737862	      0.03764133	      0.86379371	     -0.25224866	      1.56902515	    -10.69897073	     -5.58451392	     34.54467344	      0.60291829	     20.78312269	      4.50913510	    -16.72074868	      2.81219880	      0.04908213	     -3.68413892	     -9.91285315	      3.55099072	      5.51646753	    -13.69814103	      0.00000000	     -4.80728851	      2.27344892	      0.00000000
      0.79000000	     -4.76981237	      7.82285149	     -5.21155193	      0.04811198	      0.86480991	     -0.25525504	      2.71491258	    -12.04396684	     -5.80819958	     37.34030760	      0.65171131	     20.03592127	      5.67956381	    -17.02925428	      2.80422425	      0.04894295	     -3.52812882	    -10.78818942	      3.19367889	      2.10079949	    -15.37364163	      0.00000000	     -3.60168488	      3.15223902	      0.00000000
      0.80000000	     -4.64926147	      8.55616436	     -4.87668352	      0.05856162	      0.86589452	     -0.25838574	      3.83509378	    -13.40019834	     -6.19213596	     40.18701336	      0.70139570	     19.14413001	      6.86105568	    -17.17148099	      2.73115862	      0.04766771	     -3.48903898	    -11.59480242	      2.69864386	     -1.41002315	    -16.77792908	      0.00000000	     -2.37667477	      3.97362400	      0.00000000
      0.81000000	     -4.50063305	      9.22414315	     -4.56387325	      0.06886087	      0.86695956	     -0.26150664	      5.02294577	    -14.70272997	     -6.46519396	     43.05658701	      0.75147921	     18.19572477	      7.98178579	    -17.20166360	      2.61206991	      0.04558922	     -3.52383351	    -12.30663798	      2.13219734	     -4.99168890	    -17.80704991	      0.00000000	     -1.19639174	      4.71649675	      0.00000000
      0.82000000	     -4.55692216	      9.80442073	     -4.37410061	      0.07876346	      0.86764202	     -0.26422462	      6.67915187	    -15.83854194	     -6.41160306	     46.09218320	      0.80446036	     17.51427458	      8.90854158	    -17.45646340	      2.53059405	      0.04416720	     -3.32546262	    -12.92353122	      1.94478234	     -8.47378935	    -18.64362036	      0.00000000	     -0.22772473	      5.51124777	      0.00000000
      0.83000000	     -4.42465371	     10.34579615	     -4.04590239	      0.08866525	      0.86854319	     -0.26711796	      8.06613856	    -16.99954844	     -6.58664332	     48.97287553	      0.85473792	     16.56327431	      9.88982857	    -17.34246781	      2.33136962	      0.04069008	     -3.41158293	    -13.50408862	      1.47854556	    -11.54766399	    -19.00713222	      0.00000000	      0.61657078	      6.13501065	      0.00000000
      0.84000000	     -4.34217482	     10.79349425	     -3.79984219	      0.09832289	      0.86928907	     -0.26978337	      9.61576027	    -17.98774880	     -6.55572750	     51.79278178	      0.90395457	     15.68270132	     10.73102543	    -17.20796892	      2.14446018	      0.03742789	     -3.44473834	    -13.96297021	      1.08738901	    -14.24884376	    -19.21918089	      0.00000000	      1.37952533	      6.58390722	      0.00000000
      0.85000000	     -4.08368620	     11.02568515	     -3.54197066	      0.10777167	      0.87031389	     -0.27221495	     10.90915032	    -18.66030540	     -6.53430698	     54.35751078	      0.94871754	     14.60157886	     11.34082819	    -16.84879634	      1.97897500	      0.03453963	     -3.77682860	    -14.18472426	      0.52791619	    -16.32647124	    -19.33784697	      0.00000000	      2.16663104	      6.94427935	      0.00000000
      0.86000000	     -4.15046584	     11.38013051	     -3.30118560	      0.11700051	      0.87076454	     -0.27456489	     12.71784735	    -19.42792465	     -6.39130505	     56.88254848	      0.99278776	     13.94372823	     12.03374532	    -16.71785971	      1.84788965	      0.03225176	     -3.68540747	    -14.55238719	      0.34953047	    -17.96954563	    -19.43018226	      0.00000000	      2.74379436	      7.21392139	      0.00000000
      0.87000000	     -4.02126603	     11.48793816	     -3.09514122	      0.12601244	      0.87155804	     -0.27658030	     14.24424396	    -19.82927464	     -6.32352341	     59.10244389	      1.03153224	     13.06673617	     12.44338443	    -16.40554919	      1.74050947	      0.03037762	     -3.89088252	    -14.64903357	      0.00390769	    -18.68394574	    -19.48534348	      0.00000000	      3.40893317	      7.36198238	      0.00000000
      0.88000000	     -3.86119061	     11.50062446	     -2.91141460	      0.13490144	      0.87243534	     -0.27844185	     15.68592638	    -20.05571778	     -6.29244260	     61.01021260	      1.06482909	     12.16930131	     12.73574514	    -16.06231740	      1.66173239	      0.02900270	     -4.14657851	    -14.63246126	     -0.34243719	    -18.63427467	    -19.51799965	      0.00000000	      4.06925346	      7.45568064	      0.00000000
      0.89000000	     -3.72386649	     11.45203497	     -2.73040720	      0.14360219	      0.87329956	     -0.28014092	     17.12581848	    -20.14373937	     -6.32123490	     62.63862948	      1.09325032	     11.33936677	     12.93206691	    -15.71250878	      1.64541086	      0.02871784	     -4.39519258	    -14.55675850	     -0.63272846	    -17.81628049	    -19.53259379	      0.00000000	      4.68425106	      7.48859476	      0.00000000
      0.90000000	     -3.56950675	     11.31044673	     -2.57937120	      0.15216266	      0.87426521	     -0.28166260	     18.48342744	    -20.06056297	     -6.41236183	     63.89898573	      1.11524769	     10.52197062	     13.00217143	    -15.36609174	      1.67295588	      0.02919859	     -4.69449269	    -14.37179560	     -0.89891832	    -16.47440544	    -19.53505327	      0.00000000	      5.24352109	      7.46143871	      0.00000000
